<mxfile host="app.diagrams.net" modified="2020-12-21T02:44:25.959Z" agent="5.0 (Macintosh; Intel Mac OS X 11_0_1) AppleWebKit/537.36 (KHTML, like Gecko) Chrome/87.0.4280.88 Safari/537.36 Edg/87.0.664.66" etag="2jZXGp2LxVTd6tYp9YY5" version="14.1.1" type="github">
  <diagram name="Page-1" id="e7e014a7-5840-1c2e-5031-d8a46d1fe8dd">
    <mxGraphModel dx="1113" dy="693" grid="1" gridSize="10" guides="1" tooltips="1" connect="1" arrows="1" fold="1" page="1" pageScale="1" pageWidth="1169" pageHeight="826" background="#ffffff" math="0" shadow="0">
      <root>
        <mxCell id="0" />
        <mxCell id="1" parent="0" />
        <mxCell id="2" value="Thread 1" style="swimlane;whiteSpace=wrap" parent="1" vertex="1">
          <mxGeometry x="164.5" y="128" width="280" height="570" as="geometry" />
        </mxCell>
        <mxCell id="5" value="" style="ellipse;shape=startState;fillColor=#f5f5f5;strokeColor=#666666;fontColor=#333333;" parent="2" vertex="1">
          <mxGeometry x="73" y="40" width="30" height="30" as="geometry" />
        </mxCell>
        <mxCell id="6" value="" style="edgeStyle=elbowEdgeStyle;elbow=horizontal;verticalAlign=bottom;endArrow=open;endSize=8;strokeColor=#666666;endFill=1;rounded=0;entryX=0.5;entryY=0;entryDx=0;entryDy=0;fillColor=#f5f5f5;" parent="2" source="5" target="19jIFVdk67JsVvekcyDL-47" edge="1">
          <mxGeometry x="100" y="40" as="geometry">
            <mxPoint x="115.5" y="132" as="targetPoint" />
          </mxGeometry>
        </mxCell>
        <mxCell id="10" value="判断是否校准过" style="" parent="2" vertex="1">
          <mxGeometry x="29.5" y="322.5" width="117" height="52.5" as="geometry" />
        </mxCell>
        <mxCell id="11" value="success" style="endArrow=open;strokeColor=#666666;endFill=1;rounded=0;exitX=0.5;exitY=1;exitDx=0;exitDy=0;fillColor=#f5f5f5;" parent="2" source="19jIFVdk67JsVvekcyDL-47" target="10" edge="1">
          <mxGeometry relative="1" as="geometry">
            <mxPoint x="115" y="202" as="sourcePoint" />
          </mxGeometry>
        </mxCell>
        <mxCell id="19jIFVdk67JsVvekcyDL-47" value="连接蓝牙" style="rhombus;whiteSpace=wrap;html=1;" vertex="1" parent="2">
          <mxGeometry x="25.5" y="142" width="125" height="80" as="geometry" />
        </mxCell>
        <mxCell id="19jIFVdk67JsVvekcyDL-50" value="" style="ellipse;shape=endState;fillColor=#f5f5f5;strokeColor=#666666;fontColor=#333333;" vertex="1" parent="2">
          <mxGeometry x="235.5" y="167" width="30" height="30" as="geometry" />
        </mxCell>
        <mxCell id="19jIFVdk67JsVvekcyDL-49" value="failure" style="edgeStyle=orthogonalEdgeStyle;rounded=0;orthogonalLoop=1;jettySize=auto;html=1;fillColor=#f5f5f5;strokeColor=#666666;entryX=0;entryY=0.5;entryDx=0;entryDy=0;" edge="1" parent="2" source="19jIFVdk67JsVvekcyDL-47" target="19jIFVdk67JsVvekcyDL-50">
          <mxGeometry relative="1" as="geometry">
            <mxPoint x="215.5" y="182" as="targetPoint" />
          </mxGeometry>
        </mxCell>
        <mxCell id="3" value="Thread 2" style="swimlane;whiteSpace=wrap" parent="1" vertex="1">
          <mxGeometry x="445" y="128" width="280" height="570" as="geometry" />
        </mxCell>
        <mxCell id="18" value="蓝牙校准信息" style="" parent="3" vertex="1">
          <mxGeometry x="30" y="325" width="110" height="50" as="geometry" />
        </mxCell>
        <mxCell id="4" value="Thread 3" style="swimlane;whiteSpace=wrap" parent="1" vertex="1">
          <mxGeometry x="724.5" y="128" width="280" height="570" as="geometry" />
        </mxCell>
        <mxCell id="38" value="" style="ellipse;shape=endState;fillColor=#000000;strokeColor=#ff0000" parent="4" vertex="1">
          <mxGeometry x="130" y="500" width="30" height="30" as="geometry" />
        </mxCell>
        <mxCell id="20" value="" style="endArrow=open;strokeColor=#666666;endFill=1;rounded=0;fillColor=#f5f5f5;" parent="1" source="10" target="18" edge="1">
          <mxGeometry relative="1" as="geometry" />
        </mxCell>
      </root>
    </mxGraphModel>
  </diagram>
</mxfile>
